<svg xmlns="http://www.w3.org/2000/svg" fill="none" viewBox="0 0 25 25" class="w-6 h-6 hover:scale-110 transition-all duration-200 ease-in-out"><g clip-path="url(#clip0_334_6266)"><path fill="white" d="M12.504 8.302c-2.272 0-4.104 1.803-4.104 4.04 0 2.235 1.832 4.039 4.104 4.039 2.271 0 4.103-1.804 4.103-4.04 0-2.236-1.832-4.04-4.103-4.04zm0 6.665c-1.468 0-2.668-1.177-2.668-2.626 0-1.448 1.196-2.626 2.668-2.626 1.471 0 2.668 1.178 2.668 2.626 0 1.449-1.2 2.626-2.668 2.626zm5.228-6.83a.948.948 0 01-.957.942.948.948 0 01-.957-.942.95.95 0 01.957-.943.95.95 0 01.957.943zm2.718.956c-.06-1.262-.354-2.38-1.293-3.301-.936-.921-2.071-1.21-3.353-1.273-1.322-.074-5.283-.074-6.604 0-1.278.06-2.414.348-3.353 1.27-.94.92-1.229 2.038-1.293 3.3-.075 1.301-.075 5.2 0 6.5.06 1.263.353 2.38 1.293 3.302.939.921 2.071 1.21 3.353 1.273 1.322.073 5.282.073 6.604 0 1.282-.06 2.417-.349 3.353-1.273.936-.921 1.229-2.04 1.293-3.301.075-1.301.075-5.196 0-6.497zm-1.707 7.892a2.68 2.68 0 01-1.521 1.498c-1.054.411-3.554.316-4.718.316-1.165 0-3.668.092-4.718-.316a2.68 2.68 0 01-1.522-1.498c-.417-1.037-.321-3.498-.321-4.644s-.093-3.61.321-4.644A2.68 2.68 0 017.786 6.2c1.053-.41 3.553-.316 4.718-.316 1.164 0 3.668-.091 4.717.316.7.275 1.24.806 1.522 1.498.418 1.037.321 3.498.321 4.644s.097 3.61-.321 4.644z"></path></g><defs><clipPath id="clip0_334_6266"><path fill="white" d="M0 0H16V18H0z" transform="translate(4.5 3.345)"></path></clipPath></defs></svg>